<?xml version="1.0" encoding="UTF-8"?>
<svg id="Layer_1" data-name="Layer 1" xmlns="http://www.w3.org/2000/svg" viewBox="0 0 84.64 74.41">
  <defs>
    <style>
      .cls-1 {
        fill: none;
        stroke: #231f20;
        stroke-linecap: round;
        stroke-miterlimit: 10;
      }
    </style>
  </defs>
  <circle class="cls-1" cx="42.68" cy="36.26" r="32.43"/>
  <line class="cls-1" x1="57.33" y1="36.26" x2="26.67" y2="36.26"/>
  <path class="cls-1" d="m26.67,36.26c-.87-6.1-1.75-12.21-2.62-18.31,3.84-1.51,10.37-3.51,18.64-3.37,7.43.12,13.32,1.92,17.01,3.37-.79,6.1-1.57,12.21-2.36,18.31,1.1,5.78,2.19,11.56,3.29,17.33-3.19,1.62-9.53,4.31-17.93,4.38-8.8.08-15.42-2.75-18.64-4.38.87-5.78,1.75-11.56,2.62-17.33Z"/>
  <ellipse class="cls-1" cx="33.36" cy="50.82" rx="4.26" ry="3.5"/>
  <path class="cls-1" d="m28.41,34.28l-2-14.97c3.51-1.3,9.18-2.9,16.28-2.82,6.18.07,11.19,1.4,14.5,2.57l-1.64,15.21h-27.14Z"/>
  <ellipse class="cls-1" cx="34.6" cy="41.17" rx="4.15" ry="3.19"/>
  <ellipse class="cls-1" cx="49.77" cy="41.17" rx="4.2" ry="3.19"/>
  <ellipse class="cls-1" cx="50.43" cy="50.82" rx="4.16" ry="3.5"/>
  <path class="cls-1" d="m12.18,36.26c0-16.82,14.41-30.44,30.51-30.44s30.7,13.63,30.7,30.45-14.61,30.45-30.7,30.45-30.51-13.65-30.51-30.47Z"/>
</svg>