<?xml version="1.0" encoding="UTF-8"?>
<svg xmlns="http://www.w3.org/2000/svg" viewBox="0 0 89.8 89.8">
  <defs>
    <style>
      .cls-1, .cls-2 {
        fill: #f4b7c6;
      }

      .cls-2 {
        stroke: #f4b7c6;
        stroke-miterlimit: 10;
        stroke-width: .25px;
      }
    </style>
  </defs>
  <g id="Layer_1" data-name="Layer 1">
    <g>
      <path class="cls-1" d="m44.9,3.75C22.17,3.75,3.75,22.17,3.75,44.9s18.42,41.15,41.15,41.15,41.15-18.42,41.15-41.15S67.62,3.75,44.9,3.75Zm.07,79.04c-20.88,0-37.81-16.93-37.81-37.81S24.09,7.17,44.97,7.17s37.81,16.93,37.81,37.81-16.93,37.81-37.81,37.81Z"/>
      <path class="cls-1" d="m44.9,86.55c-22.97,0-41.65-18.68-41.65-41.65S21.93,3.25,44.9,3.25s41.65,18.68,41.65,41.65-18.68,41.65-41.65,41.65Zm0-82.3C22.48,4.25,4.25,22.49,4.25,44.9s18.24,40.65,40.65,40.65,40.65-18.24,40.65-40.65S67.31,4.25,44.9,4.25Zm.07,79.04c-21.13,0-38.31-17.19-38.31-38.31S23.85,6.67,44.97,6.67s38.31,17.19,38.31,38.31-17.19,38.31-38.31,38.31Zm0-75.62C24.4,7.67,7.66,24.41,7.66,44.98s16.74,37.31,37.31,37.31,37.31-16.74,37.31-37.31S65.55,7.67,44.97,7.67Z"/>
    </g>
  </g>
  <g id="Layer_3" data-name="Layer 3">
    <path class="cls-2" d="m33.18,57.09c-.4,0-.71-.05-.87-.08-2.37-.47-3.82-2.9-3.98-4.95-.12-1.62.31-2.92,1.29-3.85,1.26-1.2,2.82-1.21,3.27-1.18.88.05,2.17.4,3.31,1.78,1.89,2.28.86,5.23.73,5.56-.18.47-.51,1.35-1.39,1.99-.81.59-1.71.73-2.37.73Zm-.5-9.07c-.43,0-1.52.09-2.38.91-.75.72-1.09,1.74-.99,3.05.13,1.71,1.36,3.69,3.18,4.05.34.07,1.5.23,2.46-.47.64-.47.89-1.12,1.05-1.54.1-.27.96-2.72-.57-4.56h0c-.92-1.1-1.92-1.38-2.6-1.42-.03,0-.08,0-.15,0Z"/>
    <path class="cls-2" d="m34.03,68.26c-1.41,0-2.66-.84-3.07-1.14-.3-.22-1.09-.82-1.59-1.94-.11-.25-1.05-2.52.35-4.58.27-.4,1.31-1.74,3.12-1.96,2.15-.26,3.99,1.19,4.72,2.75h0c.6,1.28.58,2.89-.05,4.31-.54,1.22-1.46,2.11-2.51,2.43-.32.1-.65.14-.96.14Zm-.69-8.65c-.12,0-.25,0-.38.02-1.39.17-2.2,1.21-2.41,1.53-1.12,1.65-.3,3.54-.26,3.62.39.88,1.04,1.36,1.28,1.55.29.21,1.78,1.26,3.14.84.77-.23,1.46-.92,1.89-1.88.52-1.16.54-2.46.06-3.48h0c-.53-1.14-1.81-2.2-3.31-2.2Z"/>
    <path class="cls-2" d="m56.31,57.05c-.66,0-1.56-.14-2.37-.73-.88-.65-1.21-1.52-1.39-1.99-.12-.33-1.16-3.28.73-5.56h0c1.15-1.38,2.43-1.73,3.31-1.78.45-.03,2.02-.02,3.27,1.18.68.64,1.45,1.83,1.29,3.85-.16,2.05-1.61,4.48-3.98,4.95-.16.03-.47.08-.87.08Zm-2.64-7.96l.38.32c-1.53,1.84-.67,4.29-.57,4.56.16.42.4,1.07,1.05,1.54.96.71,2.12.54,2.45.48,1.82-.36,3.05-2.34,3.18-4.05.1-1.31-.23-2.33-.99-3.05-.99-.95-2.28-.92-2.53-.9-.68.04-1.68.32-2.6,1.42l-.38-.32Z"/>
    <path class="cls-2" d="m55.71,68.43c-.32,0-.64-.04-.97-.14-1.05-.32-1.97-1.2-2.51-2.43-.63-1.42-.65-3.03-.05-4.31.73-1.56,2.58-3.01,4.72-2.75,1.81.22,2.85,1.55,3.12,1.96,1.41,2.07.46,4.33.35,4.59-.5,1.12-1.32,1.74-1.59,1.94-.4.3-1.65,1.14-3.07,1.14Zm.69-8.66c-1.5,0-2.78,1.06-3.31,2.2h0c-.48,1.02-.46,2.32.06,3.48.43.96,1.12,1.64,1.89,1.88,1.36.41,2.86-.63,3.14-.84.24-.18.88-.66,1.28-1.55.04-.08.86-1.96-.26-3.62-.21-.32-1.02-1.36-2.41-1.53-.13-.02-.26-.02-.38-.02Z"/>
    <path class="cls-2" d="m44.87,57.36c-2.33,0-4.24-2.14-4.72-4.26-.37-1.62-.01-3.92,1.64-5.12,1.16-.85,2.5-.81,3-.79.51.01,2.08.06,3.32,1.23,1.78,1.68,1.37,4.19,1.27,4.68-.39,1.9-1.86,4.04-4.15,4.25-.12.01-.23.02-.35.02Zm-.38-9.18c-.52,0-1.37.07-2.11.61-1.29.94-1.56,2.78-1.26,4.09.41,1.81,2.04,3.64,4,3.47,1.91-.17,3-2.16,3.26-3.46l.49.1-.49-.1c.05-.24.45-2.4-.97-3.75-.96-.91-2.24-.95-2.66-.96-.07,0-.17,0-.27,0Z"/>
    <path class="cls-2" d="m44.95,69.81c-.08,0-.15,0-.23,0-1.5-.09-2.48-1.02-2.8-1.33-.2-.19-1.88-1.87-1.59-4.25.26-2.15,2.03-4.38,4.52-4.38h0c2.48,0,4.18,2.24,4.53,4.36h0c.1.58.22,2.07-.73,3.49-.15.22-1.48,2.12-3.7,2.12Zm-.09-8.97h0c-1.91,0-3.32,1.82-3.53,3.5-.23,1.9,1.13,3.25,1.28,3.4.29.27,1.04.99,2.17,1.06,1.79.09,2.99-1.6,3.04-1.67.77-1.16.64-2.41.58-2.77h0c-.24-1.46-1.5-3.52-3.54-3.52Z"/>
  </g>
  <g id="Layer_2" data-name="Layer 2">
    <g>
      <path class="cls-2" d="m22.03,24.67l-.46-.88c4.93-2.58,12.92-5.68,23-5.75.12,0,.24,0,.36,0,10.12,0,18.17,3.06,23.17,5.65l-.46.89c-4.89-2.54-12.78-5.54-22.71-5.54-.12,0-.24,0-.36,0-9.88.07-17.71,3.11-22.55,5.64Z"/>
      <path class="cls-2" d="m44.95,72.7h-.05c-10.42-.01-18.46-3.72-23.38-6.83l.54-.85c4.8,3.04,12.67,6.66,22.84,6.67h.04c10.1,0,17.93-3.57,22.71-6.56l.53.85c-4.9,3.07-12.9,6.72-23.24,6.72Z"/>
      <rect class="cls-2" x="22.92" y="44.62" width="43.96" height="1"/>
      <path class="cls-2" d="m67.36,45.26l-.96-.28c1.21-4.25,1.78-8.61,1.68-12.98-.06-2.69-.38-5.4-.94-8.05l.98-.21c.57,2.71.9,5.48.96,8.23.1,4.47-.48,8.93-1.72,13.27Z"/>
      <path class="cls-2" d="m22.45,45.3c-1.6-4.09-2.37-8.36-2.29-12.69.05-2.97.51-5.93,1.35-8.8l.96.28c-.82,2.78-1.26,5.66-1.31,8.53-.07,4.2.68,8.34,2.22,12.31l-.93.36Z"/>
      <path class="cls-2" d="m21.51,65.86c-.6-3.83-.77-7.74-.52-11.6.2-3.11.69-6.22,1.44-9.25l.97.24c-.74,2.98-1.21,6.03-1.41,9.08-.25,3.79-.08,7.62.51,11.38l-.99.15Z"/>
      <path class="cls-2" d="m68.21,65.96l-.99-.16c.37-2.3.59-4.63.65-6.94.12-4.56-.38-9.14-1.48-13.62l.97-.24c1.12,4.56,1.62,9.23,1.51,13.88-.06,2.35-.28,4.74-.66,7.08Z"/>
      <rect class="cls-2" x="24.2" y="42.12" width="40.63" height="1"/>
      <path class="cls-2" d="m65.46,26.2c-6.44-2.86-13.57-4.39-20.62-4.43-7.06-.04-14.18,1.43-20.65,4.22l-.4-.92c6.52-2.82,13.7-4.31,20.8-4.31.08,0,.16,0,.25,0,7.19.04,14.46,1.6,21.02,4.51l-.41.91Z"/>
      <path class="cls-2" d="m24.21,43.15c-1.46-3.96-2.01-8.03-1.64-12.09.18-2,.59-3.99,1.22-5.92l.95.31c-.6,1.86-1,3.77-1.17,5.7-.36,3.92.18,7.84,1.58,11.66l-.94.35Z"/>
      <path class="cls-2" d="m64.85,43.13l-.93-.36c1.74-4.47,2.34-8.99,1.78-13.44-.16-1.26-.41-2.52-.75-3.75l.96-.27c.35,1.28.62,2.59.78,3.89.57,4.62-.05,9.3-1.84,13.93Z"/>
    </g>
  </g>
</svg>