<?xml version="1.0" encoding="UTF-8"?>
<svg id="Layer_4" data-name="Layer 4" xmlns="http://www.w3.org/2000/svg" viewBox="0 0 89.8 89.8">
  <defs>
    <style>
      .cls-1, .cls-2 {
        fill: #f4b7c6;
      }

      .cls-2 {
        stroke: #f4b7c6;
        stroke-miterlimit: 10;
        stroke-width: .25px;
      }
    </style>
  </defs>
  <g>
    <path class="cls-1" d="m44.9,3.75C22.17,3.75,3.75,22.17,3.75,44.9s18.42,41.15,41.15,41.15,41.15-18.42,41.15-41.15S67.62,3.75,44.9,3.75Zm.07,79.04c-20.88,0-37.81-16.93-37.81-37.81S24.09,7.17,44.97,7.17s37.81,16.93,37.81,37.81-16.93,37.81-37.81,37.81Z"/>
    <path class="cls-1" d="m44.9,86.55c-22.97,0-41.65-18.68-41.65-41.65S21.93,3.25,44.9,3.25s41.65,18.68,41.65,41.65-18.68,41.65-41.65,41.65Zm0-82.3C22.48,4.25,4.25,22.49,4.25,44.9s18.24,40.65,40.65,40.65,40.65-18.24,40.65-40.65S67.31,4.25,44.9,4.25Zm.07,79.04c-21.13,0-38.31-17.19-38.31-38.31S23.85,6.67,44.97,6.67s38.31,17.19,38.31,38.31-17.19,38.31-38.31,38.31Zm0-75.62C24.4,7.67,7.66,24.41,7.66,44.98s16.74,37.31,37.31,37.31,37.31-16.74,37.31-37.31S65.55,7.67,44.97,7.67Z"/>
  </g>
  <path class="cls-2" d="m67.79,23.41c-23.71-12.41-46.01,0-46.01,0-2.98,11.93,1.26,21.2,1.26,21.2-2.98,9.74-.94,20.73-.94,20.73,23.87,14.76,45.86,0,45.86,0,2.04-8.95-.79-20.73-.79-20.73,3.93-10.21.63-21.2.63-21.2Zm-43.5,1.73s19.94-9.74,41.14,0c0,0,3.45,7.78-.79,17.12l-40.05-.16s-2.83-8.32-.31-16.96Zm6.65,19.31c2.73-.32,4.78,1.18,5.31,3.72.51,2.43-.41,7.26-5.51,6.55-2.28-.32-3.98-3.06-3.98-5.62s1.88-4.37,4.17-4.64Zm1.18,22.78c-2.64.01-4.55-2.62-4.65-5.12-.13-3.08,1.91-4.76,4.71-4.84,2.67-.08,4.5,1.79,4.71,4.84.17,2.49-1.79,5.11-4.76,5.12Zm13.03,1.35c-2.73-.05-5.27-2.2-5.21-5.06.04-2.15,1.19-4.79,4.85-5.14,2.92-.28,5.09,2.64,5.07,5.09-.02,2.65-2.3,5.16-4.7,5.11Zm-.25-13.52c-2.8-.06-4.89-2.11-5.02-4.87-.2-4.12,2.2-5.53,4.85-5.41,3.58.16,5.1,1.6,5.19,5.41.06,2.77-1.71,4.94-5.02,4.87Zm13.71,11.84c-2.97-.01-4.93-2.63-4.76-5.12.2-3.05,2.04-4.92,4.71-4.84,2.8.08,4.84,1.77,4.71,4.84-.11,2.5-2.02,5.14-4.65,5.12Zm4.76-18.12c0,2.56-1.69,5.3-3.98,5.62-5.1.72-6.01-4.11-5.51-6.55.53-2.54,2.58-4.03,5.31-3.72,2.29.27,4.17,2.08,4.17,4.64Z"/>
</svg>